<?xml version="1.0" encoding="utf-8"?>
<!-- Generator: Adobe Illustrator 22.1.0, SVG Export Plug-In . SVG Version: 6.00 Build 0)  -->
<svg version="1.1"
	 id="svg2" inkscape:output_extension="org.inkscape.output.svg.inkscape" inkscape:version="0.46" sodipodi:docname="Prince logo.svg" sodipodi:version="0.32" xmlns:cc="http://creativecommons.org/ns#" xmlns:dc="http://purl.org/dc/elements/1.1/" xmlns:inkscape="http://www.inkscape.org/namespaces/inkscape" xmlns:rdf="http://www.w3.org/1999/02/22-rdf-syntax-ns#" xmlns:sodipodi="http://sodipodi.sourceforge.net/DTD/sodipodi-0.dtd" xmlns:svg="http://www.w3.org/2000/svg"
	 xmlns="http://www.w3.org/2000/svg" xmlns:xlink="http://www.w3.org/1999/xlink" x="0px" y="0px" viewBox="0 0 25 29.2"
	 style="enable-background:new 0 0 25 29.2;" xml:space="preserve">
<defs>
	
	
		<inkscape:perspective  id="perspective10" inkscape:persp3d-origin="372.04724 : 350.78739 : 1" inkscape:vp_x="0 : 526.18109 : 1" inkscape:vp_y="0 : 1000 : 0" inkscape:vp_z="744.09448 : 526.18109 : 1" sodipodi:type="inkscape:persp3d">
		</inkscape:perspective>
	
		<inkscape:perspective  id="perspective2390" inkscape:persp3d-origin="372.04724 : 350.78739 : 1" inkscape:vp_x="0 : 526.18109 : 1" inkscape:vp_y="0 : 1000 : 0" inkscape:vp_z="744.09448 : 526.18109 : 1" sodipodi:type="inkscape:persp3d">
		</inkscape:perspective>
</defs>
<sodipodi:namedview  bordercolor="#666666" borderopacity="1.0" gridtolerance="10000" guidetolerance="10" id="base" inkscape:current-layer="layer1" inkscape:cx="65.107323" inkscape:cy="76.288101" inkscape:document-units="px" inkscape:guide-bbox="true" inkscape:pageopacity="0.0" inkscape:pageshadow="2" inkscape:window-height="721" inkscape:window-width="1024" inkscape:window-x="-4" inkscape:window-y="-4" inkscape:zoom="3.3294838" objecttolerance="10" pagecolor="#ffffff" showgrid="false" showguides="true">
	</sodipodi:namedview>
<g id="layer1" transform="translate(-239.34079,-541.59448)" inkscape:groupmode="layer" inkscape:label="Layer 1">
	<path id="text2396" sodipodi:nodetypes="csszzcsscscscccccccccccccccccccccssszcszsssscs" d="M254.8,548c0-1.9-1.9-3-3.3-3
		c-1.9,0-3.3,1.6-3.3,3.3s1.4,3,3.3,3C253.2,551.4,254.8,550.1,254.8,548z M245.9,548c0-4,3.3-5.6,5.6-5.6c3,0,5.6,2.6,5.6,5.6
		c0,2.3-0.7,3.7-2.3,4.7c1.4,0,3-0.2,4.4-0.9c1.4-0.5,2.6-1.4,3.7-2.3c-0.2,1.2-0.7,2.8-0.7,4.2c0,1.6,0.2,2.8,0.9,4
		c0.2,0.2-0.2,0.2-0.2,0.2c-2.8-3.5-6.5-3.3-10.2-3.3v4.2h1.2l0.7-0.9v3.7l-0.9-0.9h-0.9v5.1l1.6-1.2l-2.8,5.6l-2.8-5.6l1.6,1.2
		v-5.1h-1.2l-0.9,0.9v-3.7l0.9,0.9h1.2v-4.2c-2.6,0-4.9,0.5-6.8,1.2c-1.4,0.7-2.6,1.6-2.6,2.8s0.2,2.1,1.6,2.1
		c1.2,0,1.6-0.7,1.6-0.9c0-0.5-0.2-0.9-0.7-0.9c1.2,1.6-1.6,2.3-1.9,0.7c0-1.2,0.9-1.4,1.9-1.4c0.7,0,1.6,0.9,1.6,1.9
		c0,0.7-0.7,1.9-2.3,1.9c-2.1,0-2.6-1.4-2.6-2.8c0-1.9,1.6-3.3,3.5-4.2c1.6-0.9,3.7-1.4,5.1-1.4C246.9,551.9,245.9,550.3,245.9,548z
		"/>
</g>
</svg>
